<svg width="56" height="20" viewBox="0 0 56 20" fill="none" xmlns="http://www.w3.org/2000/svg">
<path d="M13.3398 0.0012549H18.2338C20.036 -0.027947 22.0139 0.440954 22.0139 2.62415C22.0139 3.56182 21.457 4.32364 20.6366 4.73388C21.7499 5.05613 22.4391 6.0234 22.4391 7.21012C22.4391 9.70103 20.6073 10.4627 18.3655 10.4627H13.3398V0.0012549ZM16.0649 4.11859H18.1753C18.6439 4.11859 19.2886 3.8694 19.2886 3.12225C19.2886 2.3603 18.7463 2.11138 18.1753 2.11138H16.0649V4.11859ZM16.0649 8.27966H18.2483C19.1127 8.27966 19.7135 7.97207 19.7135 7.10759C19.7135 6.18446 19.0688 5.87674 18.2483 5.87674H16.0649V8.27966Z" fill="#006E90"/>
<path d="M26.7605 0.00195312H29.5295L33.4417 10.4634H30.5992L29.9545 8.58807H26.3061L25.6467 10.4634H22.8481L26.7605 0.00195312ZM26.9361 6.56632H29.3096L28.1521 2.90335H28.123L26.9361 6.56632Z" fill="#006E90"/>
<path d="M34.2021 0.00195312H37.0011L40.6348 6.44887H40.6639V0.00195312H43.2285V10.4634H40.4295L36.7958 3.94356H36.7667V10.4634H34.2021V0.00195312Z" fill="#006E90"/>
<path d="M45.0884 0.00195312H47.8137V4.01676L51.2569 0.00195312H54.6417L50.7734 4.11928L55.1253 10.4635H51.7408L48.9274 6.06822L47.8139 7.24041V10.4637H45.0885V0.00208072L45.0884 0.00195312Z" fill="#006E90"/>
<path d="M6.48678 14.259H4.33724V19.8488H2.46081V14.259H0.311523V12.6445H6.48678V14.259Z" fill="#66CDE7"/>
<path d="M7.31396 12.6445H10.9868C12.2582 12.6445 13.5093 13.2198 13.5093 14.6725C13.5093 15.4495 13.1363 16.1861 12.3794 16.4788V16.4988C13.1461 16.6807 13.3679 17.538 13.4286 18.2243C13.4488 18.5268 13.4793 19.5862 13.7315 19.8489H11.8745C11.7131 19.6068 11.6829 18.9004 11.6627 18.6987C11.612 17.9721 11.4914 17.2256 10.6135 17.2256H9.19078V19.8489H7.31396V12.6445ZM9.19116 15.7722H10.7648C11.3299 15.7722 11.6326 15.4696 11.6326 14.925C11.6326 14.3903 11.2088 14.1477 10.6842 14.1477H9.19104L9.19116 15.7722Z" fill="#66CDE7"/>
<path d="M16.5565 12.6445H18.4636L21.1576 19.8488H19.1998L18.7562 18.5571H16.2437L15.7898 19.8488H13.8623L16.5565 12.6445ZM16.6777 17.1648H18.3124L17.5152 14.642H17.495L16.6777 17.1648Z" fill="#66CDE7"/>
<path d="M21.6826 12.6445H23.6097L26.1123 17.0841H26.1327V12.6445H27.8985V19.8488H25.9714L23.4686 15.3589H23.4484V19.8488H21.6826V12.6445Z" fill="#66CDE7"/>
<path d="M30.6429 17.4264C30.6835 18.2739 31.2081 18.5461 32.0053 18.5461C32.5702 18.5461 33.1555 18.3445 33.1555 17.8098C33.1555 17.1741 32.1262 17.0531 31.0871 16.7602C30.0578 16.4676 28.9781 16.0037 28.9781 14.6817C28.9781 13.1077 30.5624 12.4922 31.9146 12.4922C33.3473 12.4922 34.7901 13.1881 34.8004 14.8128H32.9236C32.9538 14.157 32.3382 13.9451 31.763 13.9451C31.3595 13.9451 30.8549 14.0862 30.8549 14.5606C30.8549 15.1155 31.8941 15.2163 32.9435 15.5091C33.9831 15.8016 35.0323 16.2859 35.0323 17.5875C35.0323 19.4139 33.4783 19.9992 31.8943 19.9992C30.2395 19.9992 28.7767 19.2725 28.7661 17.4263H30.6429V17.4264Z" fill="#66CDE7"/>
<path d="M35.9102 12.6445H41.2178V14.1478H37.7872V15.6211H40.7537V17.0737H37.7872V19.8488H35.9102V12.6445Z" fill="#66CDE7"/>
<path d="M42.0757 12.6445H47.817V14.1478H43.9524V15.4092H47.484V16.8621H43.9524V18.2344H47.918V19.8486H42.0758L42.0757 12.6445Z" fill="#66CDE7"/>
<path d="M48.9873 12.6445H52.6601C53.9315 12.6445 55.1824 13.2198 55.1824 14.6725C55.1824 15.4495 54.8093 16.1861 54.0525 16.4788V16.4988C54.8192 16.6807 55.0414 17.538 55.1017 18.2243C55.1222 18.5268 55.1521 19.5862 55.4045 19.8489H53.5478C53.3861 19.6068 53.3562 18.9004 53.3359 18.6987C53.2855 17.9721 53.1646 17.2256 52.2867 17.2256H50.8641V19.8489H48.9873V12.6445ZM50.8641 15.7722H52.4384C53.0032 15.7722 53.3057 15.4696 53.3057 14.925C53.3057 14.3903 52.8823 14.1477 52.3573 14.1477H50.8641V15.7722Z" fill="#66CDE7"/>
<path d="M11.6705 0H0.311035V2.27466H11.6705V0Z" fill="#D92B2B"/>
<path d="M11.6705 8.18945H0.311035V10.464H11.6705V8.18945Z" fill="#D92B2B"/>
<path d="M11.6705 4.09375H0.311035V6.36841H11.6705V4.09375Z" fill="#D92B2B"/>
</svg>
