<svg width="34" height="26" viewBox="0 0 34 26" fill="none" xmlns="http://www.w3.org/2000/svg">
<path d="M25.7279 13.5069C26.6323 13.5266 27.5418 13.467 28.4425 13.5379C29.3547 13.7081 29.5746 15.089 28.7642 15.5413C28.2112 15.8392 27.5543 15.6522 26.9548 15.7048H25.7279V13.5069ZM28.9655 11.0192C29.1664 11.7284 28.4827 12.3652 27.7996 12.2675H25.7279C25.7424 11.5987 25.6995 10.8728 25.7489 10.2392C26.5789 10.2626 27.4165 10.1916 28.2416 10.2764C28.5962 10.3655 28.8929 10.6569 28.9655 11.0192ZM33.9514 0.502003C33.99 1.8564 33.957 3.28238 33.968 4.66424C33.9655 10.2824 33.9735 15.9004 33.9636 21.5189C33.9273 23.6244 32.0612 25.454 29.9702 25.496C27.8771 25.5045 25.7837 25.4973 23.6904 25.4997V17.0062C25.9712 16.9944 28.2532 17.0301 30.533 16.9884C31.5907 16.922 32.7491 16.2241 32.7984 15.0603C32.9229 13.8914 31.8208 13.0829 30.7745 12.9552C30.3723 12.9448 30.384 12.838 30.7745 12.7914C31.7725 12.5757 32.5561 11.5429 32.2625 10.5085C32.0123 9.42053 30.8098 8.99945 29.8096 9.00154C27.7702 8.98769 25.7303 8.9996 23.6909 8.99558C23.704 7.40995 23.6634 5.82261 23.7128 4.23814C23.8743 2.1706 25.7874 0.465552 27.849 0.502544C29.8834 0.502234 31.9175 0.502235 33.9514 0.502157V0.502003Z" fill="url(#paint0_linear_3146_11789)"/>
<path d="M0.643602 4.45071C0.695687 2.3485 2.56972 0.533944 4.65805 0.503221C6.74336 0.496797 8.82898 0.502292 10.9143 0.500435C10.9086 7.53398 10.9256 14.5683 10.9057 21.6015C10.8254 23.6781 8.97177 25.4581 6.90619 25.4949C4.81693 25.5024 2.72744 25.4959 0.638108 25.498V16.7182C2.66754 17.1976 4.79573 17.4017 6.86611 17.0837C8.10367 16.8846 9.45771 16.2768 9.87671 14.9929C10.185 13.8947 10.0114 12.7389 10.0573 11.6117V8.99401H6.47435C6.45825 10.7253 6.50732 12.4596 6.44842 14.1888C6.35184 15.2517 5.29924 15.927 4.29679 15.8909C3.05357 15.904 0.589969 14.9899 0.589969 14.9899C0.583778 11.7462 0.626035 7.68396 0.643602 4.45102V4.45071Z" fill="url(#paint1_linear_3146_11789)"/>
<path d="M12.2508 10.0503C12.0622 10.0903 12.2129 9.40785 12.1647 9.14898C12.1775 7.51219 12.1378 5.87362 12.1866 4.238C12.3477 2.16171 14.2754 0.452411 16.3454 0.501011H22.4414C22.4357 7.53456 22.4526 14.5689 22.4328 21.602C22.3524 23.6787 20.4986 25.4586 18.433 25.4954C16.3437 25.5033 14.2541 25.4967 12.1646 25.4987V15.8792C13.5916 17.05 15.5311 17.2322 17.309 17.2354C18.6492 17.235 19.9817 17.0283 21.2832 16.7192V14.9569C19.8164 15.6879 18.0922 16.1523 16.4662 15.7323C15.3319 15.45 14.5085 14.3538 14.5269 13.1833C14.3955 11.966 15.109 10.6809 16.3053 10.319C17.7905 9.85408 19.4092 10.2097 20.8014 10.8142C21.0997 10.9703 21.4024 11.1641 21.2832 10.6655V9.28031C18.9548 8.72636 16.4768 8.52251 14.1376 9.12515C13.4605 9.31614 12.8008 9.60581 12.2508 10.0504V10.0503Z" fill="url(#paint2_linear_3146_11789)"/>
<defs>
<linearGradient id="paint0_linear_3146_11789" x1="23.6202" y1="12.4664" x2="33.9032" y2="12.4664" gradientUnits="userSpaceOnUse">
<stop stop-color="#007B40"/>
<stop offset="1" stop-color="#55B330"/>
</linearGradient>
<linearGradient id="paint1_linear_3146_11789" x1="0.419468" y1="13.2386" x2="10.7458" y2="13.2386" gradientUnits="userSpaceOnUse">
<stop stop-color="#1D2970"/>
<stop offset="1" stop-color="#006DBA"/>
</linearGradient>
<linearGradient id="paint2_linear_3146_11789" x1="12.1495" y1="12.7075" x2="22.4395" y2="12.7075" gradientUnits="userSpaceOnUse">
<stop stop-color="#6E2B2F"/>
<stop offset="1" stop-color="#E30138"/>
</linearGradient>
</defs>
</svg>
