<svg width="76" height="20" viewBox="0 0 76 20" fill="none" xmlns="http://www.w3.org/2000/svg">
<path d="M13.6704 0.970492C12.73 0.32402 11.5029 0 9.98904 0H4.12825C3.66416 0 3.40777 0.232099 3.35906 0.695736L0.978176 15.641C0.953433 15.7877 0.990156 15.922 1.08801 16.044C1.18531 16.1663 1.30768 16.2271 1.45424 16.2271H4.23808C4.72635 16.2271 4.99472 15.9955 5.04399 15.5312L5.70322 11.5021C5.7273 11.3069 5.81317 11.1481 5.95973 11.0259C6.10618 10.9038 6.28935 10.824 6.50913 10.7874C6.72891 10.7511 6.93616 10.7329 7.13187 10.7329C7.32702 10.7329 7.55889 10.7452 7.82794 10.7695C8.09631 10.7939 8.26739 10.8057 8.34073 10.8057C10.4407 10.8057 12.089 10.214 13.2858 9.02934C14.482 7.84511 15.0808 6.20295 15.0808 4.10254C15.0808 2.66191 14.6103 1.61797 13.6704 0.970492ZM10.6485 5.45795C10.526 6.31279 10.2089 6.87417 9.69615 7.14288C9.18325 7.41193 8.45068 7.54561 7.49843 7.54561L6.28957 7.58233L6.91242 3.66286C6.96101 3.39448 7.11966 3.26013 7.38849 3.26013H8.08467C9.06098 3.26013 9.7696 3.40087 10.2092 3.68122C10.6485 3.96225 10.7951 4.55475 10.6485 5.45795Z" fill="#003087"/>
<path d="M75.5204 0H72.81C72.5408 0 72.3822 0.134355 72.3338 0.402954L69.9527 15.641L69.916 15.7142C69.916 15.8369 69.9649 15.9523 70.0628 16.0623C70.16 16.172 70.2826 16.227 70.4289 16.227H72.8467C73.31 16.227 73.5666 15.9954 73.616 15.5311L75.9969 0.549177V0.512789C75.9968 0.170967 75.8376 0 75.5204 0Z" fill="#009CDE"/>
<path d="M42.7731 5.89755C42.7731 5.77574 42.7239 5.65952 42.6269 5.5498C42.5289 5.43996 42.4188 5.38477 42.2971 5.38477H39.4766C39.2074 5.38477 38.9877 5.50748 38.8172 5.751L34.9345 11.4656L33.3229 5.971C33.2003 5.58048 32.9318 5.38477 32.517 5.38477H29.7694C29.647 5.38477 29.5371 5.43985 29.44 5.5498C29.342 5.65952 29.2935 5.77585 29.2935 5.89755C29.2935 5.94682 29.5316 6.66685 30.0077 8.05877C30.4837 9.45091 30.9966 10.9528 31.5461 12.5647C32.0957 14.1762 32.3823 15.0314 32.4069 15.1284C30.4044 17.8637 29.4033 19.3289 29.4033 19.524C29.4033 19.8417 29.5619 20.0003 29.8795 20.0003H32.7C32.9686 20.0003 33.1883 19.8784 33.3594 19.6341L42.7001 6.15395C42.7487 6.10536 42.7731 6.02027 42.7731 5.89755Z" fill="#003087"/>
<path d="M69.0368 5.38541H66.2528C65.9107 5.38541 65.7037 5.78837 65.6305 6.59427C64.9949 5.61796 63.8356 5.12891 62.1503 5.12891C60.3921 5.12891 58.896 5.78837 57.6632 7.10706C56.4298 8.42587 55.8135 9.97678 55.8135 11.7592C55.8135 13.2003 56.2346 14.3479 57.077 15.2023C57.9195 16.0576 59.0489 16.4844 60.4656 16.4844C61.1736 16.4844 61.8939 16.3376 62.6265 16.0448C63.3592 15.7518 63.9326 15.3613 64.3484 14.8727C64.3484 14.8972 64.3235 15.0069 64.275 15.2022C64.2258 15.3979 64.2017 15.5447 64.2017 15.6418C64.2017 16.0329 64.36 16.2278 64.678 16.2278H67.2057C67.669 16.2278 67.938 15.9962 68.0111 15.5319L69.5131 5.97154C69.5372 5.82498 69.5006 5.69085 69.4032 5.56858C69.3052 5.44666 69.1834 5.38541 69.0368 5.38541ZM64.2567 12.6016C63.634 13.2122 62.8831 13.5173 62.004 13.5173C61.2955 13.5173 60.7221 13.3222 60.2824 12.9312C59.8427 12.5412 59.6229 12.0039 59.6229 11.3195C59.6229 10.4166 59.9281 9.65298 60.5387 9.03024C61.1486 8.40751 61.9063 8.09614 62.8099 8.09614C63.493 8.09614 64.0609 8.29767 64.5131 8.70051C64.9645 9.10347 65.1909 9.65925 65.1909 10.3674C65.1908 11.2464 64.8793 11.9914 64.2567 12.6016Z" fill="#009CDE"/>
<path d="M27.4252 5.38541H24.6414C24.299 5.38541 24.0919 5.78837 24.0185 6.59427C23.3592 5.61796 22.1992 5.12891 20.5386 5.12891C18.7804 5.12891 17.2844 5.78837 16.0514 7.10706C14.818 8.42587 14.2017 9.97678 14.2017 11.7592C14.2017 13.2003 14.623 14.3479 15.4655 15.2023C16.308 16.0576 17.4372 16.4844 18.8537 16.4844C19.5371 16.4844 20.2457 16.3376 20.9782 16.0448C21.7108 15.7518 22.2969 15.3613 22.7365 14.8727C22.6385 15.1657 22.5899 15.4222 22.5899 15.6418C22.5899 16.0329 22.7486 16.2278 23.0661 16.2278H25.5935C26.0572 16.2278 26.3261 15.9962 26.3994 15.5319L27.9012 5.97154C27.9253 5.82498 27.8886 5.69085 27.7914 5.56858C27.6936 5.44666 27.5717 5.38541 27.4252 5.38541ZM22.645 12.6198C22.0221 13.2188 21.2587 13.5173 20.3557 13.5173C19.6471 13.5173 19.0793 13.3222 18.6523 12.9312C18.2247 12.5412 18.0112 12.0039 18.0112 11.3195C18.0112 10.4166 18.3163 9.65298 18.927 9.03024C19.5371 8.40751 20.2942 8.09614 21.1981 8.09614C21.8815 8.09614 22.4493 8.29767 22.9015 8.70051C23.3529 9.10347 23.5791 9.65925 23.5791 10.3674C23.5791 11.271 23.2677 12.0221 22.645 12.6198Z" fill="#003087"/>
<path d="M55.2822 0.970492C54.3419 0.32402 53.1151 0 51.601 0H45.7768C45.2881 0 45.0194 0.232099 44.9709 0.695736L42.59 15.6408C42.5653 15.7876 42.6019 15.9219 42.6998 16.0439C42.7968 16.1662 42.9195 16.227 43.0661 16.227H46.0696C46.3626 16.227 46.5578 16.0684 46.6557 15.7509L47.3152 11.502C47.3393 11.3068 47.4249 11.148 47.5716 11.0257C47.7181 10.9037 47.9011 10.8239 48.1211 10.7873C48.3407 10.751 48.548 10.7327 48.7438 10.7327C48.939 10.7327 49.1708 10.7451 49.4395 10.7694C49.7081 10.7938 49.8796 10.8056 49.9523 10.8056C52.0526 10.8056 53.7007 10.2139 54.8975 9.02923C56.094 7.845 56.6924 6.20284 56.6924 4.10242C56.6925 2.66191 56.2221 1.61797 55.2822 0.970492ZM51.5276 6.99632C50.9903 7.36255 50.1844 7.54561 49.1101 7.54561L47.9379 7.58233L48.5607 3.66286C48.6091 3.39448 48.7678 3.26013 49.0368 3.26013H49.6959C50.233 3.26013 50.6604 3.28454 50.9784 3.33324C51.2953 3.3825 51.601 3.53466 51.894 3.79106C52.1872 4.04756 52.3336 4.42006 52.3336 4.90844C52.3336 5.93402 52.0646 6.62987 51.5276 6.99632Z" fill="#009CDE"/>
</svg>
