<svg width="9" height="7" viewBox="0 0 9 7" fill="none" xmlns="http://www.w3.org/2000/svg">
<path d="M0.249362 2.35939C0.988156 0.294894 3.30454 0.178554 5.0903 0.451423C5.19846 0.468345 5.28213 0.557187 5.32295 0.656604C6.36992 0.866016 7.36586 1.3356 8.15364 2.08229C8.69243 2.59206 9.09652 3.30915 8.90468 4.08546C8.72916 4.80042 8.11078 5.30807 7.50464 5.62748C5.91889 6.46089 3.96986 6.49686 2.3188 5.85382C0.939175 5.31865 -0.334326 3.9945 0.249362 2.35939Z" fill="#3BBBAB"/>
<path d="M0.85292 3.78336C1.05905 4.40313 1.63049 4.82195 2.18357 5.08001C3.4489 5.67229 4.96118 5.70613 6.28571 5.30847C7.40002 4.97425 9.02864 3.94412 7.87963 2.63265C7.1143 1.76116 5.94081 1.22812 4.77547 1.00391C3.56319 1.07794 2.24479 1.12447 1.34477 2.07211C0.912107 2.52689 0.644751 3.15301 0.85292 3.78336Z" fill="#BAE4D4"/>
<path d="M1.34477 2.07167C1.49784 1.91091 1.66519 1.7861 1.83866 1.67188C1.80397 1.8284 1.79172 1.98705 1.80192 2.13724C1.82845 2.47145 1.94275 2.81836 2.12234 3.09757C2.35908 3.46563 2.63051 3.77234 2.96726 4.04732C3.19992 4.2377 3.45706 4.41326 3.73666 4.52114C4.09177 4.65863 4.39995 4.72844 4.78159 4.74325C5.04282 4.75383 5.29997 4.69671 5.55304 4.63325C5.73672 4.58672 5.91427 4.51691 6.07958 4.42596C6.30612 4.30327 6.53266 4.16366 6.73062 3.99232C6.92042 3.82945 7.07553 3.63484 7.22451 3.43178C7.31839 3.30275 7.39595 3.16314 7.45105 3.01085C7.53064 2.78874 7.5735 2.58356 7.58982 2.36357C7.68574 2.45242 7.79391 2.53068 7.87963 2.6301C9.02864 3.94156 7.40002 4.96958 6.28571 5.30591C4.96118 5.70358 3.4489 5.66973 2.18357 5.07746C1.63049 4.81939 1.05905 4.40057 0.85292 3.7808C0.644751 3.15045 0.912107 2.52433 1.34477 2.07167Z" fill="#61E8C5"/>
</svg>
