<svg width="31" height="16" viewBox="0 0 31 16" fill="none" xmlns="http://www.w3.org/2000/svg">
<path d="M20.9297 0.871094C19.4572 0.72394 17.9767 0.720031 16.5068 0.861328L15.7734 0.943359L15.7246 0.950195L15.6787 0.96582C14.6095 1.32478 13.5281 1.63204 12.4336 1.87305L11.7959 2.00684C10.3055 2.3007 8.80375 2.4782 7.29883 2.55664L6.75586 2.58496L6.81445 3.00781C2.48589 2.95557 -0.670798 7.9694 1.83496 11.9072L1.95996 12.0967C3.07214 13.7096 4.77336 14.5496 6.55371 14.9756C8.10932 15.3477 9.76345 15.4131 11.2207 15.3857L11.833 15.3691C15.7406 15.2279 19.6088 14.2906 23.1729 12.6299L23.8809 12.2881C25.4452 11.5081 27.1967 10.5565 28.4199 9.06348L28.6572 8.75781C29.3158 7.86044 29.6295 6.84117 29.5391 5.84473C29.4481 4.8435 28.9525 3.9059 28.0674 3.18066H28.0664L27.7197 2.91504C25.9475 1.64601 23.6056 1.21441 21.665 0.957031L20.9297 0.871094Z" fill="#BAE4D4" stroke="#3BBBAB"/>
<path d="M2.72907 5.46508C2.75764 5.7866 2.81274 6.10602 2.91887 6.41485C4.20462 10.1271 9.73333 10.3937 12.8865 10.1356C14.6069 9.99387 16.3457 9.65543 18.0152 9.21123C19.8336 8.72895 21.9091 8.03725 23.25 6.60099C24.4704 5.29375 24.746 3.35828 23.8459 1.84375C25.2582 2.16527 26.6562 2.67082 27.7501 3.5677C29.3277 4.85801 29.4481 6.83577 28.2542 8.46241C27.1072 10.0256 25.3296 11.005 23.6582 11.8405C19.9642 13.6829 15.9131 14.7215 11.815 14.8696C8.65167 14.9838 4.40666 14.7659 2.37191 11.813C0.90453 9.68715 1.32087 7.16787 2.72907 5.46508Z" fill="#61E8C5"/>
</svg>
