<svg width="17" height="9" viewBox="0 0 17 9" fill="none" xmlns="http://www.w3.org/2000/svg">
<path d="M4.72769 0.925633C4.81544 0.934094 4.90932 1.01447 4.96238 1.11177C7.16244 0.650643 9.44413 0.640066 11.6462 1.14138C13.5034 1.56655 16.9586 2.85897 16.03 5.53478C15.6586 6.60511 14.5953 7.23124 13.6197 7.5993C12.1871 8.1408 10.5789 8.36714 9.06861 8.51097C6.41752 8.76058 2.4909 8.96787 0.729627 6.43589C-1.29696 3.52317 1.88272 0.686608 4.72769 0.925633Z" fill="#3BBBAB"/>
<path d="M1.44174 5.971C2.88259 8.07146 6.40105 7.74358 8.56641 7.6082C9.86645 7.52571 11.1726 7.34803 12.44 7.03709C13.3441 6.81499 14.3931 6.46385 14.9951 5.68332C16.8401 3.29518 12.589 1.95199 11.0971 1.63258C8.86029 1.15242 6.5684 1.18204 4.35406 1.68124C3.54587 1.99641 2.67647 2.12966 1.9642 2.70502C0.94173 3.53208 0.668252 4.84356 1.44174 5.971Z" fill="#BAE4D4"/>
<path d="M1.96262 2.71041C2.36059 2.38889 2.80754 2.2091 3.26469 2.05469C2.79529 2.68504 2.77488 3.4423 3.12591 4.17418C3.48511 4.92087 4.24839 5.60411 5.00556 5.88756C5.79945 6.1837 6.64641 6.24504 7.48316 6.18792C8.35461 6.12658 9.23423 5.94889 10.0628 5.66756C10.7669 5.42854 11.5159 5.08798 12.0649 4.55916C12.6894 3.95631 13.0037 3.04674 12.869 2.17948C14.5364 2.82887 16.3038 3.9965 14.9915 5.69295C14.3895 6.47348 13.3405 6.82462 12.4364 7.04672C11.169 7.35766 9.86282 7.53534 8.56279 7.61783C6.39743 7.75321 2.87897 8.0832 1.43812 5.98063C0.666668 4.84896 0.940144 3.53537 1.96262 2.71041Z" fill="#61E8C5"/>
</svg>
