<?xml version="1.0" encoding="UTF-8"?>
<svg id="Layer_2" data-name="Layer 2" xmlns="http://www.w3.org/2000/svg" viewBox="0 0 106.75 108.44">
  <defs>
    <style>
      .cls-1 {
        fill: #0eaa46;
      }

      .cls-2 {
        fill: #0faa46;
      }

      .cls-3 {
        fill: #11ab47;
      }

      .cls-4 {
        fill: #0da945;
      }
    </style>
  </defs>
  <g id="Layer_1-2" data-name="Layer 1">
    <g>
      <path class="cls-4" d="M8.68,52.7c6.7-1.22,28.71-.92,36-.24,3.87.36,7.4,1.73,9.37,5.27,1.93,3.47,1.87,18.3,1.36,22.75-.64,5.59-4.34,9.27-9.91,9.91-7.73.88-27.58.88-35.31,0-3.41-.39-6.84-2.18-8.54-5.24-1.92-3.46-1.91-19.13-1.28-23.54s4.13-8.16,8.31-8.92ZM48.53,73.17c-.58-3.35,1.74-12.41-2.33-13.61-10.93.52-23.61-1.28-34.33-.22-7.77.77-3.78,7.96-4.69,13.83h41.34ZM48.53,80.06H7.19c-.22,1.86,1.44,3.14,3.04,3.42,10.76-.78,23.06,1.11,33.62.07,2.37-.23,4.64-.42,4.69-3.5Z"/>
      <path class="cls-4" d="M79.33,18.27c33.24-4.39,37.27,44.76,6.58,47.91-32.19,3.3-36.54-43.95-6.58-47.91ZM80.19,25.16c-21.09,2.81-18.31,36.34,4.84,34.14,22-2.1,19.26-37.34-4.84-34.14Z"/>
      <path class="cls-4" d="M20.97,9c.67-3.76,5.32-7.57,9.12-8.1,8.46-1.2,38.77-1.2,47.21,0s12.53,13.14,6.06,13.74c-4.92.46-2.63-6.39-6.87-6.9l-46.9.42c-.41.19-1.74,1.56-1.74,1.71v37.04c0,2.63-6.89,2.63-6.89,0V9Z"/>
      <path class="cls-4" d="M79.54,71.88c.93-3.3,6.89-2.06,6.89,0v27.56c0,3.35-5.76,7.63-9.12,8.1-8.46,1.2-38.77,1.2-47.21,0s-12.53-13.14-6.06-13.74c4.92-.46,2.63,6.39,6.87,6.9l46.9-.42c.41-.19,1.74-1.56,1.74-1.71,0-5.55-1.1-22.81,0-26.7Z"/>
      <path class="cls-2" d="M49.14,13.05c2.29-.67,9.87-.77,11.04,1.54,2.98,5.9-7.54,6.04-11.04,5-3.23-.96-3.07-5.64,0-6.54Z"/>
      <path class="cls-3" d="M37.07,63.01c8.25-2.49,10.74,5.55,4.97,6.68-7.76,1.52-9.5-5.32-4.97-6.68Z"/>
      <path class="cls-1" d="M90.5,35.4c3.17-.87,5.5,1.99,4.12,5.02-.36.8-11.41,9.99-12.26,10.23,0,0-14.18-9.91-7.37-11.81,3.82-1.06,4.5,3.99,7.4,3.23,1.44-.38,5.92-6.06,8.12-6.67Z"/>
    </g>
  </g>
</svg>