<svg width="24" height="18" viewBox="0 0 24 18" xmlns="http://www.w3.org/2000/svg" xmlns:xlink="http://www.w3.org/1999/xlink" role="presentation" focusable="false"><defs><filter x="-50%" y="-50%" width="200%" height="200%" filterUnits="objectBoundingBox" id="m"><feOffset dy="-.5" in="SourceAlpha" result="shadowOffsetInner1"/><feComposite in="shadowOffsetInner1" in2="SourceAlpha" operator="arithmetic" k2="-1" k3="1" result="shadowInnerInner1"/><feColorMatrix values="0 0 0 0 0 0 0 0 0 0 0 0 0 0 0 0 0 0 0.04 0" in="shadowInnerInner1" result="shadowMatrixInner1"/><feOffset dy=".5" in="SourceAlpha" result="shadowOffsetInner2"/><feComposite in="shadowOffsetInner2" in2="SourceAlpha" operator="arithmetic" k2="-1" k3="1" result="shadowInnerInner2"/><feColorMatrix values="0 0 0 0 1 0 0 0 0 1 0 0 0 0 1 0 0 0 0.12 0" in="shadowInnerInner2" result="shadowMatrixInner2"/><feMerge><feMergeNode in="shadowMatrixInner1"/><feMergeNode in="shadowMatrixInner2"/></feMerge></filter><filter x="-50%" y="-50%" width="200%" height="200%" filterUnits="objectBoundingBox" id="d"><feMorphology radius=".25" operator="dilate" in="SourceAlpha" result="shadowSpreadOuter1"/><feOffset in="shadowSpreadOuter1" result="shadowOffsetOuter1"/><feColorMatrix values="0 0 0 0 0 0 0 0 0 0 0 0 0 0 0 0 0 0 0.06 0" in="shadowOffsetOuter1"/></filter><filter x="-50%" y="-50%" width="200%" height="200%" filterUnits="objectBoundingBox" id="b"><feOffset dy=".5" in="SourceAlpha" result="shadowOffsetOuter1"/><feGaussianBlur stdDeviation=".5" in="shadowOffsetOuter1" result="shadowBlurOuter1"/><feColorMatrix values="0 0 0 0 0 0 0 0 0 0 0 0 0 0 0 0 0 0 0.16 0" in="shadowBlurOuter1"/></filter><filter x="-50%" y="-50%" width="200%" height="200%" filterUnits="objectBoundingBox" id="g"><feMorphology radius=".25" operator="dilate" in="SourceAlpha" result="shadowSpreadOuter1"/><feOffset in="shadowSpreadOuter1" result="shadowOffsetOuter1"/><feColorMatrix values="0 0 0 0 0 0 0 0 0 0 0 0 0 0 0 0 0 0 0.06 0" in="shadowOffsetOuter1"/></filter><filter x="-50%" y="-50%" width="200%" height="200%" filterUnits="objectBoundingBox" id="j"><feMorphology radius=".25" operator="dilate" in="SourceAlpha" result="shadowSpreadOuter1"/><feOffset in="shadowSpreadOuter1" result="shadowOffsetOuter1"/><feColorMatrix values="0 0 0 0 0 0 0 0 0 0 0 0 0 0 0 0 0 0 0.06 0" in="shadowOffsetOuter1"/></filter><linearGradient x1="50%" y1="0%" x2="50%" y2="100%" id="f"><stop stop-color="#DE1C33" offset="0%"/><stop stop-color="#CC162C" offset="100%"/></linearGradient><linearGradient x1="50%" y1="0%" x2="50%" y2="100%" id="i"><stop stop-color="#0C4AC3" offset="0%"/><stop stop-color="#073DA6" offset="100%"/></linearGradient><linearGradient x1="50%" y1="0%" x2="50%" y2="100%" id="l"><stop stop-color="#FED74D" offset="0%"/><stop stop-color="#FCD036" offset="100%"/></linearGradient><path id="k" d="M0 0l10.476 7.85L0 15.7z"/><path id="h" d="M0 0h22v7.327H0z"/><path id="e" d="M0 7.327h22V15.7H0z"/><rect id="n" width="22" height="15.7" rx="1.5"/><rect id="a" width="22" height="15.7" rx="1.5"/></defs><g transform="translate(1 1)" fill="none" fill-rule="evenodd"><mask id="c" fill="#fff"><use xlink:href="#a"/></mask><use fill="#000" filter="url(#b)" xlink:href="#a"/><g mask="url(#c)"><use fill="#000" filter="url(#d)" xlink:href="#e"/><use fill="url(#f)" xlink:href="#e"/></g><g mask="url(#c)"><use fill="#000" filter="url(#g)" xlink:href="#h"/><use fill="url(#i)" xlink:href="#h"/></g><g mask="url(#c)"><use fill="#000" filter="url(#j)" xlink:href="#k"/><use fill="#fff" xlink:href="#k"/></g><path d="M3.56 8.891l-.896 1.376.34-1.606a1.053 1.053 0 01-.15-.15l-1.607.34 1.377-.895a1.058 1.058 0 010-.212L1.247 6.85l1.608.34c.045-.055.095-.105.15-.15l-.34-1.606.896 1.376a1.061 1.061 0 01.211 0l.897-1.376-.34 1.606c.055.045.105.095.15.15l1.607-.34-1.377.895a1.058 1.058 0 010 .212l1.377.895-1.608-.34a1.053 1.053 0 01-.15.15l.34 1.606-.896-1.376a1.061 1.061 0 01-.211 0zm4.297-.518a.524.524 0 110-1.047.524.524 0 010 1.047zM1.571 3.14a.524.524 0 110-1.047.524.524 0 010 1.047zm0 10.467a.524.524 0 110-1.047.524.524 0 010 1.047z" fill="url(#l)" mask="url(#c)"/><g mask="url(#c)" fill="#000"><use filter="url(#m)" xlink:href="#n"/></g></g></svg>