<svg width="24" height="18" viewBox="0 0 24 18" xmlns="http://www.w3.org/2000/svg" xmlns:xlink="http://www.w3.org/1999/xlink" role="presentation" focusable="false"><defs><filter x="-50%" y="-50%" width="200%" height="200%" filterUnits="objectBoundingBox" id="b"><feOffset dy=".5" in="SourceAlpha" result="shadowOffsetOuter1"/><feGaussianBlur stdDeviation=".5" in="shadowOffsetOuter1" result="shadowBlurOuter1"/><feColorMatrix values="0 0 0 0 0 0 0 0 0 0 0 0 0 0 0 0 0 0 0.16 0" in="shadowBlurOuter1"/></filter><filter x="-50%" y="-50%" width="200%" height="200%" filterUnits="objectBoundingBox" id="f"><feOffset dy=".5" in="SourceAlpha" result="shadowOffsetOuter1"/><feColorMatrix values="0 0 0 0 0 0 0 0 0 0 0 0 0 0 0 0 0 0 0.06 0" in="shadowOffsetOuter1"/></filter><filter x="-50%" y="-50%" width="200%" height="200%" filterUnits="objectBoundingBox" id="h"><feOffset dy="-.5" in="SourceAlpha" result="shadowOffsetInner1"/><feComposite in="shadowOffsetInner1" in2="SourceAlpha" operator="arithmetic" k2="-1" k3="1" result="shadowInnerInner1"/><feColorMatrix values="0 0 0 0 0 0 0 0 0 0 0 0 0 0 0 0 0 0 0.04 0" in="shadowInnerInner1" result="shadowMatrixInner1"/><feOffset dy=".5" in="SourceAlpha" result="shadowOffsetInner2"/><feComposite in="shadowOffsetInner2" in2="SourceAlpha" operator="arithmetic" k2="-1" k3="1" result="shadowInnerInner2"/><feColorMatrix values="0 0 0 0 1 0 0 0 0 1 0 0 0 0 1 0 0 0 0.12 0" in="shadowInnerInner2" result="shadowMatrixInner2"/><feMerge><feMergeNode in="shadowMatrixInner1"/><feMergeNode in="shadowMatrixInner2"/></feMerge></filter><linearGradient x1="50%" y1="0%" x2="50%" y2="100%" id="c"><stop stop-color="#D02F44" offset="0%"/><stop stop-color="#B12537" offset="100%"/></linearGradient><linearGradient x1="50%" y1="0%" x2="50%" y2="100%" id="e"><stop stop-color="#46467F" offset="0%"/><stop stop-color="#3C3C6D" offset="100%"/></linearGradient><rect id="a" width="22" height="15.7" rx="1.5"/><rect id="i" width="22" height="15.7" rx="1.5"/><path d="M1.571 2.093a.524.524 0 110-1.047.524.524 0 010 1.047zm2.096 0a.524.524 0 110-1.047.524.524 0 010 1.047zm2.095 0a.524.524 0 110-1.047.524.524 0 010 1.047zm2.095 0a.524.524 0 110-1.047.524.524 0 010 1.047zM2.62 3.14a.524.524 0 110-1.047.524.524 0 010 1.047zm2.095 0a.524.524 0 110-1.047.524.524 0 010 1.047zm2.096 0a.524.524 0 11-.001-1.047.524.524 0 010 1.047zm1.047 1.047a.524.524 0 110-1.047.524.524 0 010 1.047zm-2.095 0a.524.524 0 110-1.047.524.524 0 010 1.047zm-2.095 0a.524.524 0 110-1.047.524.524 0 010 1.047zm-2.096 0a.524.524 0 110-1.047.524.524 0 010 1.047zM2.62 5.233a.524.524 0 110-1.047.524.524 0 010 1.047zm2.095 0a.524.524 0 110-1.047.524.524 0 010 1.047zm2.096 0a.524.524 0 11-.001-1.047.524.524 0 010 1.047zM7.857 6.28a.524.524 0 110-1.047.524.524 0 010 1.047zm-2.095 0a.524.524 0 110-1.047.524.524 0 010 1.047zm-2.095 0a.524.524 0 110-1.047.524.524 0 010 1.047zm-2.096 0a.524.524 0 110-1.047.524.524 0 010 1.047z" id="g"/></defs><g transform="translate(1 1)" fill="none" fill-rule="evenodd"><mask id="d" fill="#fff"><use xlink:href="#a"/></mask><use fill="#000" filter="url(#b)" xlink:href="#a"/><use fill="#fff" xlink:href="#a"/><path d="M0 0h22v1.047H0V0zm0 2.093h22V3.14H0V2.093zm0 2.094h22v1.046H0V4.187zM0 6.28h22v1.047H0V6.28zm0 2.093h22V9.42H0V8.373zm0 2.094h22v1.046H0v-1.046zm0 2.093h22v1.047H0V12.56zm0 2.093h22V15.7H0v-1.047z" fill="url(#c)" mask="url(#d)"/><path fill="url(#e)" mask="url(#d)" d="M0 0h9.429v7.327H0z"/><g mask="url(#d)"><use fill="#000" filter="url(#f)" xlink:href="#g"/><use fill="#fff" xlink:href="#g"/></g><use filter="url(#h)" xlink:href="#i" fill="#000"/></g></svg>